<svg width="371" height="184" viewBox="0 0 371 184" fill="none" xmlns="http://www.w3.org/2000/svg">
  <path fill='black' d="M0 91.5001V183H3H6V101.5C6 56.7001 6.3 20.0001 6.8 20.0001C7.2 20.0001 9.5 24.6001 11.9 30.3001C14.4 35.9001 19.8 48.4001 24.1 58.0001C28.3 67.6001 38.4 90.6001 46.5 109C54.6 127.4 63.6 147.9 66.5 154.5C69.4 161.1 73.4 170.1 75.3 174.5C78.5 182.1 78.9 182.5 82.1 182.8L85.6 183.1L91 171L96.3 158.9L91.7 148.7C83.4 130.1 60.2 78.0001 42.8 38.7001L25.6 9.49278e-05H12.8H0V91.5001Z" />
  <path fill='black' d="M159.3 1.7C158.8 2.7 158.6 43.9 158.8 93.2L159.2 183H172.1H185V91.5V-2.72691e-06H172.5C161.6 -2.72691e-06 160 0.199997 159.3 1.7Z" />
  <path fill='black' d="M237 3.40009C237 5.6001 237.6 7.0001 238.6 7.4001C239.5 7.7001 251.5 8.0001 265.3 8.0001C300.8 8.1001 309.5 9.9001 317.4 19.1001C323.2 25.9001 325.5 34.3001 325.5 48.5001C325.4 64.1001 323.3 69.9001 314.9 78.2001C309.7 83.3001 308.1 84.2001 299.5 86.9001L290 90.0001H263.5H237V93.0001V96.0001H255.8C277.1 96.0001 285.6 97.5001 295.2 102.9C315.8 114.6 335.5 142.7 348.2 178.5L349.6 182.5L359.9 182.8L370.2 183.1L369.5 180.8C367.9 175.6 354.7 148 348.8 137.8C337.7 118.4 323.9 103.5 310.3 96.2001C306.7 94.3001 305.1 92.9001 306 92.7001C306.8 92.4001 310.6 91.4001 314.3 90.6001C330 86.8001 345.1 75.7001 351.2 63.2001C354.3 56.9001 354.5 55.9001 354.5 45.5001C354.5 35.4001 354.3 34.0001 351.6 28.5001C344.2 13.4001 326.8 3.90009 301.5 1.00009C296.6 0.500095 280 9.49278e-05 264.8 9.49278e-05H237V3.40009Z" />
</svg>